<svg width="800" height="800" viewBox="0 0 800 800" fill="none" xmlns="http://www.w3.org/2000/svg">
<rect width="800" height="800" fill="#051E42"/>
<path d="M279.711 578C271.573 578 267.504 573.524 267.504 564.572V241.33C267.504 232.378 271.573 227.902 279.711 227.902H302.172C310.31 227.902 314.379 232.378 314.379 241.33V375.852H484.789V241.33C484.789 232.378 488.858 227.902 496.996 227.902H519.457C527.595 227.902 531.664 232.378 531.664 241.33V564.572C531.664 573.524 527.595 578 519.457 578H496.996C488.858 578 484.789 573.524 484.789 564.572V415.891H314.379V564.572C314.379 573.524 310.31 578 302.172 578H279.711Z" fill="white"/>
</svg>
